<svg width="366" height="80" viewBox="0 0 366 80" fill="none" xmlns="http://www.w3.org/2000/svg">
  <path d="M95.8171 51.8034C95.8171 66.6107 83.8135 78.6143 69.0062 78.6143C54.1989 78.6143 42.1953 66.6107 42.1953 51.8034C42.1953 36.9961 54.1989 24.9925 69.0062 24.9925C83.8135 24.9925 95.8171 36.9961 95.8171 51.8034Z" fill="#445EBB"/>
  <path d="M39.3509 8.8666C39.3509 3.96971 43.3206 0 48.2175 0H89.5949C94.4918 0 98.4615 3.96971 98.4615 8.8666C98.4615 13.7635 94.4918 17.7332 89.5949 17.7332H48.2175C43.3206 17.7332 39.3509 13.7635 39.3509 8.8666Z" fill="#FFCE51"/>
  <path d="M0 9.10559C0 4.0746 4.09497 0 9.14638 0H24.6311C29.6825 0 33.7775 4.07843 33.7775 9.10942V70.6239C33.7775 75.3474 30.1297 79.2703 25.4196 78.717C15.4169 77.5419 0 72.5776 0 53.138C0 35.079 0 18.7574 0 9.10559Z" fill="#FFA08B"/>
  <path d="M191.784 59.3576C191.784 62.1978 191.243 64.8859 190.161 67.4218C189.079 69.9239 187.591 72.1048 185.697 73.9645C183.838 75.8242 181.64 77.295 179.104 78.377C176.602 79.459 173.914 80 171.04 80C168.47 80 166.002 79.5605 163.635 78.6813C161.268 77.7684 159.121 76.4497 157.194 74.7253C155.3 76.4497 153.17 77.7684 150.803 78.6813C148.47 79.5605 146.002 80 143.398 80C140.524 80 137.836 79.459 135.334 78.377C132.832 77.295 130.634 75.8242 128.74 73.9645C126.881 72.1048 125.41 69.9239 124.328 67.4218C123.246 64.8859 122.705 62.1978 122.705 59.3576V24.7676H136.551V59.3576C136.551 60.3043 136.72 61.2004 137.058 62.0457C137.43 62.8572 137.921 63.5841 138.529 64.2266C139.172 64.8352 139.899 65.3255 140.71 65.6974C141.555 66.0355 142.451 66.2046 143.398 66.2046C144.345 66.2046 145.241 66.0355 146.086 65.6974C146.932 65.3255 147.675 64.8352 148.318 64.2266C148.96 63.5841 149.451 62.8572 149.789 62.0457C150.161 61.2004 150.347 60.3043 150.347 59.3576V24.7676H164.142V59.3576C164.142 60.3043 164.328 61.2004 164.7 62.0457C165.072 62.8572 165.562 63.5841 166.171 64.2266C166.813 64.8352 167.54 65.3255 168.352 65.6974C169.197 66.0355 170.093 66.2046 171.04 66.2046C171.986 66.2046 172.882 66.0355 173.728 65.6974C174.573 65.3255 175.3 64.8352 175.909 64.2266C176.551 63.5841 177.058 62.8572 177.43 62.0457C177.802 61.2004 177.988 60.3043 177.988 59.3576V24.7676H191.784V59.3576Z" fill="#111827"/>
  <path d="M218.157 9.90704C218.157 11.1919 217.904 12.3922 217.396 13.5081C216.923 14.6239 216.264 15.6044 215.418 16.4497C214.573 17.2612 213.576 17.9206 212.426 18.4277C211.31 18.9011 210.11 19.1378 208.825 19.1378C207.54 19.1378 206.323 18.9011 205.173 18.4277C204.057 17.9206 203.077 17.2612 202.232 16.4497C201.42 15.6044 200.761 14.6239 200.254 13.5081C199.78 12.3922 199.544 11.1919 199.544 9.90704C199.544 8.65598 199.78 7.47255 200.254 6.35674C200.761 5.20712 201.42 4.22657 202.232 3.41507C203.077 2.56976 204.057 1.91042 205.173 1.43705C206.323 0.929862 207.54 0.67627 208.825 0.67627C210.11 0.67627 211.31 0.929862 212.426 1.43705C213.576 1.91042 214.573 2.56976 215.418 3.41507C216.264 4.22657 216.923 5.20712 217.396 6.35674C217.904 7.47255 218.157 8.65598 218.157 9.90704ZM215.773 78.9856H201.826V24.6661H215.773V78.9856Z" fill="#111827"/>
  <path d="M280.744 51.3441C280.744 55.6044 280.017 59.4928 278.563 63.0093C277.109 66.5258 275.131 69.552 272.629 72.0879C270.127 74.59 267.185 76.5343 263.804 77.9206C260.456 79.3069 256.855 80 253.001 80C249.18 80 245.579 79.29 242.198 77.8698C238.85 76.4497 235.909 74.4717 233.373 71.9358C230.871 69.3999 228.893 66.3906 227.439 62.9079C225.985 59.3914 225.258 55.5368 225.258 51.3441V3.06004H239.155V28.4193C239.899 27.4725 240.795 26.6272 241.843 25.8834C242.925 25.1395 244.074 24.5309 245.292 24.0575C246.543 23.5841 247.828 23.2291 249.146 22.9924C250.465 22.7219 251.75 22.5867 253.001 22.5867C256.855 22.5867 260.456 23.3136 263.804 24.7676C267.185 26.1877 270.127 28.1826 272.629 30.7523C275.131 33.3221 277.109 36.3652 278.563 39.8817C280.017 43.3643 280.744 47.1851 280.744 51.3441ZM266.796 51.3441C266.796 49.2477 266.424 47.3035 265.68 45.5114C264.97 43.6856 263.99 42.1133 262.739 40.7946C261.488 39.4759 260.017 38.4447 258.326 37.7008C256.669 36.9569 254.894 36.585 253.001 36.585C251.107 36.585 249.315 37.0076 247.625 37.8529C245.968 38.6644 244.514 39.7633 243.263 41.1496C242.012 42.5021 241.031 44.0744 240.321 45.8665C239.611 47.6247 239.256 49.4506 239.256 51.3441C239.256 53.4404 239.611 55.3846 240.321 57.1767C241.031 58.9687 242.012 60.5241 243.263 61.8428C244.514 63.1615 245.968 64.2097 247.625 64.9873C249.315 65.7312 251.107 66.1031 253.001 66.1031C254.894 66.1031 256.669 65.7312 258.326 64.9873C260.017 64.2097 261.488 63.1615 262.739 61.8428C263.99 60.5241 264.97 58.9687 265.68 57.1767C266.424 55.3846 266.796 53.4404 266.796 51.3441Z" fill="#111827"/>
  <path d="M304.784 9.90704C304.784 11.1919 304.531 12.3922 304.024 13.5081C303.55 14.6239 302.891 15.6044 302.046 16.4497C301.2 17.2612 300.203 17.9206 299.053 18.4277C297.937 18.9011 296.737 19.1378 295.452 19.1378C294.167 19.1378 292.95 18.9011 291.801 18.4277C290.685 17.9206 289.704 17.2612 288.859 16.4497C288.047 15.6044 287.388 14.6239 286.881 13.5081C286.407 12.3922 286.171 11.1919 286.171 9.90704C286.171 8.65598 286.407 7.47255 286.881 6.35674C287.388 5.20712 288.047 4.22657 288.859 3.41507C289.704 2.56976 290.685 1.91042 291.801 1.43705C292.95 0.929862 294.167 0.67627 295.452 0.67627C296.737 0.67627 297.937 0.929862 299.053 1.43705C300.203 1.91042 301.2 2.56976 302.046 3.41507C302.891 4.22657 303.55 5.20712 304.024 6.35674C304.531 7.47255 304.784 8.65598 304.784 9.90704ZM302.401 78.9856H288.453V24.6661H302.401V78.9856Z" fill="#111827"/>
  <path d="M365.494 51.3441C365.494 55.4015 364.768 59.1885 363.314 62.705C361.86 66.1877 359.882 69.2139 357.38 71.7836C354.877 74.3195 351.936 76.3314 348.555 77.8191C345.207 79.2731 341.606 80 337.751 80C333.931 80 330.33 79.2731 326.948 77.8191C323.601 76.3314 320.659 74.3195 318.123 71.7836C315.621 69.2139 313.643 66.1877 312.189 62.705C310.735 59.1885 310.008 55.4015 310.008 51.3441C310.008 47.219 310.735 43.3982 312.189 39.8817C313.643 36.3652 315.621 33.339 318.123 30.8031C320.659 28.2333 323.601 26.2215 326.948 24.7676C330.33 23.3136 333.931 22.5867 337.751 22.5867C341.606 22.5867 345.207 23.2798 348.555 24.6661C351.936 26.0186 354.877 27.9628 357.38 30.4988C359.882 33.0009 361.86 36.0271 363.314 39.5774C364.768 43.0939 365.494 47.0161 365.494 51.3441ZM351.547 51.3441C351.547 49.1124 351.175 47.1006 350.431 45.3086C349.721 43.4827 348.74 41.9273 347.489 40.6425C346.238 39.3238 344.768 38.3263 343.077 37.6501C341.42 36.94 339.645 36.585 337.751 36.585C335.858 36.585 334.066 36.94 332.375 37.6501C330.719 38.3263 329.265 39.3238 328.014 40.6425C326.796 41.9273 325.833 43.4827 325.123 45.3086C324.413 47.1006 324.057 49.1124 324.057 51.3441C324.057 53.4404 324.413 55.3846 325.123 57.1767C325.833 58.9687 326.796 60.5241 328.014 61.8428C329.265 63.1615 330.719 64.2097 332.375 64.9873C334.066 65.7312 335.858 66.1031 337.751 66.1031C339.645 66.1031 341.42 65.7481 343.077 65.0381C344.768 64.328 346.238 63.3305 347.489 62.0457C348.74 60.7608 349.721 59.2054 350.431 57.3796C351.175 55.5537 351.547 53.5419 351.547 51.3441Z" fill="#111827"/>
</svg>