<svg width="300" height="240" viewBox="0 0 300 240" fill="none" xmlns="http://www.w3.org/2000/svg">
<path d="M291.943 157.838C291.943 202.954 255.369 239.528 210.253 239.528C165.137 239.528 128.564 202.954 128.564 157.838C128.564 112.722 165.137 76.1487 210.253 76.1487C255.369 76.1487 291.943 112.722 291.943 157.838Z" fill="#445EBB"/>
<path d="M119.897 27.0154C119.897 12.0952 131.992 0 146.913 0H272.985C287.905 0 300 12.0952 300 27.0154C300 41.9356 287.905 54.0309 272.985 54.0309H146.913C131.992 54.0309 119.897 41.9356 119.897 27.0154Z" fill="#FFCE51"/>
<path d="M0 27.7436C0 12.4148 12.4769 0 27.8679 0H75.048C90.439 0 102.916 12.4265 102.916 27.7553V215.182C102.916 229.574 91.8014 241.527 77.4503 239.841C46.9733 236.261 0 221.135 0 161.905C0 106.881 0 57.1514 0 27.7436Z" fill="#FFA08B"/>
</svg>
