<?xml version="1.0" standalone="no"?>
<!DOCTYPE svg PUBLIC "-//W3C//DTD SVG 20010904//EN"
 "http://www.w3.org/TR/2001/REC-SVG-20010904/DTD/svg10.dtd">
<svg version="1.0" xmlns="http://www.w3.org/2000/svg"
 width="260.000000pt" height="260.000000pt" viewBox="0 0 260.000000 260.000000"
 preserveAspectRatio="xMidYMid meet">
<metadata>
Created by potrace 1.14, written by Peter Selinger 2001-2017
</metadata>
<g transform="translate(0.000000,260.000000) scale(0.100000,-0.100000)"
fill="#000000" stroke="none">
<path d="M154 2324 c-47 -17 -105 -68 -131 -116 -17 -31 -18 -76 -18 -683 0
-357 3 -672 7 -700 21 -155 108 -295 242 -389 58 -41 183 -99 236 -110 209
-42 239 -42 302 3 33 24 66 70 77 109 2 10 5 397 7 861 2 914 3 895 -52 954
-14 15 -44 40 -66 55 l-41 27 -261 2 c-209 2 -269 -1 -302 -13z"/>
<path d="M1188 2330 c-106 -32 -178 -144 -162 -252 13 -88 79 -163 165 -188
21 -6 258 -10 611 -10 570 -1 577 0 623 21 108 51 160 180 119 294 -14 39 -74
103 -116 123 -42 20 -57 21 -628 21 -322 -1 -597 -4 -612 -9z"/>
<path d="M1635 1671 c-293 -72 -506 -317 -533 -609 -35 -374 221 -701 590
-756 82 -13 110 -13 200 -1 233 29 444 189 542 412 42 96 59 192 52 303 -6
112 -9 129 -31 195 -77 224 -265 397 -495 454 -97 24 -234 25 -325 2z"/>
</g>
</svg>
